<svg xmlns="http://www.w3.org/2000/svg" viewBox="0 0 407.45 407.45" fill="#010002">
    <defs/>
    <path d="M255.1 116.52a8.13 8.13 0 100-16.26H143.49a8.13 8.13 0 100 16.25h111.6z"/>
    <path d="M367.06 100.26H311.7a8.13 8.13 0 100 16.26h47.24V391.2H48.52V116.5h44.54a8.13 8.13 0 100-16.25H40.39a8.13 8.13 0 00-8.13 8.13v290.93c0 4.5 3.64 8.13 8.13 8.13h326.67a8.13 8.13 0 008.13-8.13V108.4c0-4.5-3.63-8.13-8.13-8.13z"/>
    <path d="M282.59 134.8a8.13 8.13 0 008.13-8.13V67.39C290.72 30.24 250.6 0 201.1 0c-49.3 0-89.41 30.24-89.41 67.4v59.27a8.13 8.13 0 1016.26 0V67.39c0-28.2 32.82-51.13 73.36-51.13 40.33 0 73.15 22.94 73.15 51.13v59.28c0 4.5 3.64 8.13 8.13 8.13zM98.9 147.57c0 11.52 9.38 20.9 20.91 20.9a20.94 20.94 0 0020.93-20.9 8.13 8.13 0 10-16.26 0 4.66 4.66 0 01-9.33 0 8.13 8.13 0 10-16.26 0zM282.59 168.47a20.94 20.94 0 0020.92-20.9 8.13 8.13 0 10-16.26 0 4.66 4.66 0 01-9.33 0 8.13 8.13 0 10-16.26 0c0 11.52 9.4 20.9 20.93 20.9z"/>
</svg>